{
  "accessors": [
    {
      "bufferView": 2,
      "componentType": 5126,
      "count": 65532,
      "max": [
        2.983358860015869,
        6.655587673187256,
        2.809811592102051
      ],
      "min": [
        -2.983358860015869,
        0.3100188672542572,
        -3.7571375370025635
      ],
      "type": "VEC3"
    },
    {
      "bufferView": 2,
      "byteOffset": 786384,
      "componentType": 5126,
      "count": 65532,
      "max": [
        1.0,
        0.9999967813491821,
        0.9999966621398926
      ],
      "min": [
        -1.0,
        -0.9999998807907104,
        -0.9999969005584717
      ],
      "type": "VEC3"
    },
    {
      "bufferView": 3,
      "componentType": 5126,
      "count": 65532,
      "max": [
        1.0,
        1.0,
        0.9999988079071045,
        1.0
      ],
      "min": [
        -1.0,
        -0.9999999403953552,
        -0.999967634677887,
        -1.0
      ],
      "type": "VEC4"
    },
    {
      "bufferView": 1,
      "componentType": 5126,
      "count": 65532,
      "max": [
        0.9652455449104309,
        0.9844701290130615
      ],
      "min": [
        0.0,
        0.0
      ],
      "type": "VEC2"
    },
    {
      "bufferView": 1,
      "byteOffset": 524256,
      "componentType": 5126,
      "count": 65532,
      "max": [
        0.9652455449104309,
        0.9844701290130615
      ],
      "min": [
        0.0,
        0.0
      ],
      "type": "VEC2"
    },
    {
      "bufferView": 0,
      "componentType": 5125,
      "count": 338409,
      "type": "SCALAR"
    },
    {
      "bufferView": 2,
      "byteOffset": 1572768,
      "componentType": 5126,
      "count": 51328,
      "max": [
        2.843078374862671,
        6.675107479095459,
        1.8341569900512695
      ],
      "min": [
        -2.979123830795288,
        2.5745151042938232,
        -3.794579029083252
      ],
      "type": "VEC3"
    },
    {
      "bufferView": 2,
      "byteOffset": 2188704,
      "componentType": 5126,
      "count": 51328,
      "max": [
        1.0,
        1.0,
        0.9999967813491821
      ],
      "min": [
        -1.0,
        -0.9999718070030212,
        -0.9999963045120239
      ],
      "type": "VEC3"
    },
    {
      "bufferView": 3,
      "byteOffset": 1048512,
      "componentType": 5126,
      "count": 51328,
      "max": [
        0.9999999403953552,
        0.9999953508377075,
        0.9999898076057434,
        1.0
      ],
      "min": [
        -1.0,
        -0.9999985694885254,
        -0.9999998807907104,
        -1.0
      ],
      "type": "VEC4"
    },
    {
      "bufferView": 1,
      "byteOffset": 1048512,
      "componentType": 5126,
      "count": 51328,
      "max": [
        0.9791392683982849,
        0.9759716391563416
      ],
      "min": [
        0.02658584713935852,
        0.0328405499458313
      ],
      "type": "VEC2"
    },
    {
      "bufferView": 1,
      "byteOffset": 1459136,
      "componentType": 5126,
      "count": 51328,
      "max": [
        0.9791392683982849,
        0.9759716391563416
      ],
      "min": [
        0.02658584713935852,
        0.0328405499458313
      ],
      "type": "VEC2"
    },
    {
      "bufferView": 0,
      "byteOffset": 1353636,
      "componentType": 5125,
      "count": 227211,
      "type": "SCALAR"
    },
    {
      "bufferView": 2,
      "byteOffset": 2804640,
      "componentType": 5126,
      "count": 440,
      "max": [
        1.243409276008606,
        0.4716728627681732,
        1.8190219402313232
      ],
      "min": [
        -1.243409276008606,
        -0.0011366978287696838,
        -2.3733785152435303
      ],
      "type": "VEC3"
    },
    {
      "bufferView": 2,
      "byteOffset": 2809920,
      "componentType": 5126,
      "count": 440,
      "max": [
        1.0,
        1.0,
        1.0
      ],
      "min": [
        -1.0,
        -1.0,
        -1.0
      ],
      "type": "VEC3"
    },
    {
      "bufferView": 1,
      "byteOffset": 1869760,
      "componentType": 5126,
      "count": 440,
      "max": [
        0.5046647191047668,
        0.7742102146148682
      ],
      "min": [
        0.24490442872047424,
        0.4988819360733032
      ],
      "type": "VEC2"
    },
    {
      "bufferView": 0,
      "byteOffset": 2262480,
      "componentType": 5125,
      "count": 660,
      "type": "SCALAR"
    },
    {
      "bufferView": 2,
      "byteOffset": 2815200,
      "componentType": 5126,
      "count": 2853,
      "max": [
        -2.85725474357605,
        2.822909355163574,
        1.1762397289276123
      ],
      "min": [
        -2.9143941402435303,
        2.3772199153900146,
        0.42222172021865845
      ],
      "type": "VEC3"
    },
    {
      "bufferView": 2,
      "byteOffset": 2849436,
      "componentType": 5126,
      "count": 2853,
      "max": [
        1.0,
        0.9999895691871643,
        0.9999926686286926
      ],
      "min": [
        -1.0,
        -0.9999343752861023,
        -0.9999983310699463
      ],
      "type": "VEC3"
    },
    {
      "bufferView": 3,
      "byteOffset": 1869760,
      "componentType": 5126,
      "count": 2853,
      "max": [
        0.999976634979248,
        0.9999980330467224,
        0.9998945593833923,
        -1.0
      ],
      "min": [
        -0.999977171421051,
        -1.0,
        -0.9999768137931824,
        -1.0
      ],
      "type": "VEC4"
    },
    {
      "bufferView": 1,
      "byteOffset": 1873280,
      "componentType": 5126,
      "count": 2853,
      "max": [
        0.5500773787498474,
        0.7742102146148682
      ],
      "min": [
        0.47522425651550293,
        0.05176609754562378
      ],
      "type": "VEC2"
    },
    {
      "bufferView": 0,
      "byteOffset": 2265120,
      "componentType": 5125,
      "count": 14328,
      "type": "SCALAR"
    }
  ],
  "asset": {
    "extras": {
      "author": "supersayianrobin3 (https://sketchfab.com/supersayianrobin3)",
      "license": "CC-BY-4.0 (http://creativecommons.org/licenses/by/4.0/)",
      "source": "https://sketchfab.com/3d-models/recliner-16bf5997db5e4450b0f477ab95d1f725",
      "title": "Recliner"
    },
    "generator": "Sketchfab-14.96.0",
    "version": "2.0"
  },
  "bufferViews": [
    {
      "buffer": 0,
      "byteLength": 2322432,
      "name": "floatBufferViews",
      "target": 34963
    },
    {
      "buffer": 0,
      "byteLength": 1896104,
      "byteOffset": 2322432,
      "byteStride": 8,
      "name": "floatBufferViews",
      "target": 34962
    },
    {
      "buffer": 0,
      "byteLength": 2883672,
      "byteOffset": 4218536,
      "byteStride": 12,
      "name": "floatBufferViews",
      "target": 34962
    },
    {
      "buffer": 0,
      "byteLength": 1915408,
      "byteOffset": 7102208,
      "byteStride": 16,
      "name": "floatBufferViews",
      "target": 34962
    }
  ],
  "buffers": [
    {
      "byteLength": 9017616,
      "uri": "scene.bin"
    }
  ],
  "extensionsUsed": [
    "KHR_texture_transform",
    "KHR_materials_specular"
  ],
  "images": [
    {
      "uri": "textures/Leather_baseColor.png"
    },
    {
      "uri": "textures/Leather_normal.png"
    },
    {
      "uri": "textures/Leather_specularf0.png"
    }
  ],
  "materials": [
    {
      "doubleSided": true,
      "extensions": {
        "KHR_materials_specular": {
          "specularColorFactor": [
            1.0,
            1.0,
            1.0
          ],
          "specularFactor": 1.0,
          "specularTexture": {
            "index": 2
          }
        }
      },
      "name": "Leather",
      "normalTexture": {
        "extensions": {
          "KHR_texture_transform": {
            "offset": [
              0,
              -4
            ],
            "scale": [
              5,
              5
            ]
          }
        },
        "index": 1,
        "texCoord": 1
      },
      "pbrMetallicRoughness": {
        "baseColorTexture": {
          "extensions": {
            "KHR_texture_transform": {
              "offset": [
                0,
                -4
              ],
              "scale": [
                5,
                5
              ]
            }
          },
          "index": 0
        },
        "metallicFactor": 0.0,
        "roughnessFactor": 0.4
      }
    },
    {
      "doubleSided": true,
      "name": "Metal",
      "pbrMetallicRoughness": {
        "baseColorFactor": [
          0.0425414,
          0.0425414,
          0.0425414,
          1.0
        ],
        "roughnessFactor": 0.3
      }
    },
    {
      "doubleSided": true,
      "name": "PLastic",
      "normalTexture": {
        "index": 1
      },
      "pbrMetallicRoughness": {
        "baseColorFactor": [
          0.0142932,
          0.0142932,
          0.0142932,
          1.0
        ],
        "metallicFactor": 0.0,
        "roughnessFactor": 0.35
      }
    }
  ],
  "meshes": [
    {
      "name": "Object_0",
      "primitives": [
        {
          "attributes": {
            "NORMAL": 1,
            "POSITION": 0,
            "TANGENT": 2,
            "TEXCOORD_0": 3,
            "TEXCOORD_1": 4
          },
          "indices": 5,
          "material": 0,
          "mode": 4
        }
      ]
    },
    {
      "name": "Object_1",
      "primitives": [
        {
          "attributes": {
            "NORMAL": 7,
            "POSITION": 6,
            "TANGENT": 8,
            "TEXCOORD_0": 9,
            "TEXCOORD_1": 10
          },
          "indices": 11,
          "material": 0,
          "mode": 4
        }
      ]
    },
    {
      "name": "Object_2",
      "primitives": [
        {
          "attributes": {
            "NORMAL": 13,
            "POSITION": 12,
            "TEXCOORD_0": 14
          },
          "indices": 15,
          "material": 1,
          "mode": 4
        }
      ]
    },
    {
      "name": "Object_3",
      "primitives": [
        {
          "attributes": {
            "NORMAL": 17,
            "POSITION": 16,
            "TANGENT": 18,
            "TEXCOORD_0": 19
          },
          "indices": 20,
          "material": 2,
          "mode": 4
        }
      ]
    }
  ],
  "nodes": [
    {
      "children": [
        1
      ],
      "matrix": [
        1.4285714626312256,
        0.0,
        0.0,
        0.0,
        0.0,
        3.172065860271246e-16,
        -1.4285714626312256,
        0.0,
        0.0,
        1.4285714626312256,
        3.172065860271246e-16,
        0.0,
        0.0,
        0.0,
        0.0,
        1.0
      ],
      "name": "Sketchfab_model"
    },
    {
      "children": [
        2
      ],
      "name": "root"
    },
    {
      "children": [
        3
      ],
      "matrix": [
        1.0,
        0.0,
        0.0,
        0.0,
        0.0,
        2.220446049250313e-16,
        1.0,
        0.0,
        0.0,
        -1.0,
        2.220446049250313e-16,
        0.0,
        0.0,
        0.0,
        0.0,
        1.0
      ],
      "name": "GLTF_SceneRootNode"
    },
    {
      "children": [
        4,
        5,
        6,
        7
      ],
      "matrix": [
        0.1489931344985962,
        0.0,
        0.0,
        0.0,
        0.0,
        0.14837683737277985,
        0.0,
        0.0,
        0.0,
        0.0,
        0.14537601172924042,
        0.0,
        0.0,
        0.0,
        0.0,
        1.0
      ],
      "name": "Recliner_0"
    },
    {
      "mesh": 0,
      "name": "Object_4"
    },
    {
      "mesh": 1,
      "name": "Object_5"
    },
    {
      "mesh": 2,
      "name": "Object_6"
    },
    {
      "mesh": 3,
      "name": "Object_7"
    }
  ],
  "samplers": [
    {
      "magFilter": 9729,
      "minFilter": 9987,
      "wrapS": 10497,
      "wrapT": 10497
    }
  ],
  "scene": 0,
  "scenes": [
    {
      "name": "Sketchfab_Scene",
      "nodes": [
        0
      ]
    }
  ],
  "textures": [
    {
      "sampler": 0,
      "source": 0
    },
    {
      "sampler": 0,
      "source": 1
    },
    {
      "sampler": 0,
      "source": 2
    }
  ]
}
